<svg width="41" height="43" viewBox="0 0 41 43" fill="none" xmlns="http://www.w3.org/2000/svg">
<path d="M5.41922 29.223L0.400567 40.7344C0.0042919 41.6419 0.988147 42.5362 1.89374 42.0939L8.66644 38.7843L5.91488 28.6988C5.69997 28.8084 5.52233 28.988 5.41922 29.223Z" fill="#4169DE"/>
<path d="M15.9807 33.3353L6.93098 28.6999C6.59806 28.53 6.22042 28.5432 5.91359 28.6999L8.66515 38.7854L15.9621 35.2203C16.7546 34.8322 16.7658 33.7378 15.9807 33.3353Z" fill="#4169DE"/>
<path d="M39.9809 40.8802L35.556 31.8288L31.869 39.1808L38.525 42.2891C39.4505 42.7218 40.4219 41.7829 39.9809 40.8802Z" fill="#122558"/>
<path d="M35.556 31.8288L22.9349 35.0082L31.869 39.1808L35.556 31.8288Z" fill="#182D69"/>
<path d="M35.556 31.8288C35.4529 31.6178 35.2802 31.4454 35.0653 31.3393L26.9435 27.3223L22.9336 35.0081L35.556 31.8288Z" fill="#1D3578"/>
<path d="M19.2379 23.5114C19.0156 23.4005 18.8479 23.2269 18.7473 23.022L22.9324 35.0082L26.9423 27.3224L19.2379 23.5114Z" fill="#223B85"/>
<path d="M18.7485 23.022L22.9336 35.0081L14.7088 31.1671L18.7485 23.022Z" fill="#25408F"/>
<path d="M7.34466 27.7273C7.10863 27.6164 6.93224 27.4344 6.82913 27.2199L18.7497 23.022L14.7099 31.1671L7.34466 27.7273Z" fill="#29469A"/>
<path d="M6.82913 27.2199C6.69745 26.9463 6.68757 26.6196 6.82919 26.3243L10.2342 19.2278L18.7497 23.0207L6.82913 27.2199Z" fill="#2E4EAB"/>
<path d="M13.8503 11.6902L18.7485 23.022L10.2329 19.229L13.8503 11.6902Z" fill="#3253B3"/>
<path d="M18.7485 22.1132C18.6181 22.3807 18.6119 22.6748 18.71 22.9327L18.7485 23.022C18.7349 22.9931 18.7212 22.9629 18.71 22.9327L13.8503 11.6902L21.9672 15.5325L18.7485 22.1132Z" fill="#365AC0"/>
<path d="M13.8503 11.6902L25.0044 9.31948L21.9659 15.5313L13.8503 11.6902Z" fill="#395EC8"/>
<path d="M13.8503 11.6902L25.0044 9.31948L16.8752 5.38445L13.8503 11.6902Z" fill="#3D63D3"/>
<path d="M24.987 8.37581L20.9721 0.880378C20.5547 0.101788 19.3994 0.125893 19.0168 0.921356L16.8752 5.38318L25.0044 9.31831C25.1523 9.01941 25.1448 8.6711 24.987 8.37581Z" fill="#4068DC"/>
</svg>
