<svg width="20" height="20" viewBox="0 0 20 20" fill="none" xmlns="http://www.w3.org/2000/svg">
<path d="M14.1667 18.9584H5.83342C2.15841 18.9584 1.04175 17.8417 1.04175 14.1667V5.83335C1.04175 2.15835 2.15841 1.04169 5.83342 1.04169H7.08342C8.54175 1.04169 9.00008 1.51669 9.58342 2.29169L10.8334 3.95835C11.1084 4.32502 11.1501 4.37502 11.6667 4.37502H14.1667C17.8417 4.37502 18.9584 5.49169 18.9584 9.16669V14.1667C18.9584 17.8417 17.8417 18.9584 14.1667 18.9584ZM5.83342 2.29169C2.85008 2.29169 2.29175 2.85835 2.29175 5.83335V14.1667C2.29175 17.1417 2.85008 17.7084 5.83342 17.7084H14.1667C17.1501 17.7084 17.7084 17.1417 17.7084 14.1667V9.16669C17.7084 6.19169 17.1501 5.62502 14.1667 5.62502H11.6667C10.6001 5.62502 10.2501 5.25835 9.83342 4.70835L8.58342 3.04169C8.15008 2.46669 8.01675 2.29169 7.08342 2.29169H5.83342Z" fill="#292D32"/>
<path d="M16.6667 5.94169C16.3251 5.94169 16.0417 5.65835 16.0417 5.31669V4.16669C16.0417 2.85002 15.4834 2.29169 14.1667 2.29169H6.66675C6.32508 2.29169 6.04175 2.00835 6.04175 1.66669C6.04175 1.32502 6.32508 1.04169 6.66675 1.04169H14.1667C16.1834 1.04169 17.2917 2.15002 17.2917 4.16669V5.31669C17.2917 5.65835 17.0084 5.94169 16.6667 5.94169Z" fill="#292D32"/>
</svg>
