<svg width="21" height="20" viewBox="0 0 21 20" fill="none" xmlns="http://www.w3.org/2000/svg">
<path d="M7.04175 4.79169C6.70008 4.79169 6.41675 4.50835 6.41675 4.16669V1.66669C6.41675 1.32502 6.70008 1.04169 7.04175 1.04169C7.38341 1.04169 7.66675 1.32502 7.66675 1.66669V4.16669C7.66675 4.50835 7.38341 4.79169 7.04175 4.79169Z" fill="#292D32"/>
<path d="M13.7083 4.79169C13.3666 4.79169 13.0833 4.50835 13.0833 4.16669V1.66669C13.0833 1.32502 13.3666 1.04169 13.7083 1.04169C14.0499 1.04169 14.3333 1.32502 14.3333 1.66669V4.16669C14.3333 4.50835 14.0499 4.79169 13.7083 4.79169Z" fill="#292D32"/>
<path d="M13.7083 18.9584H7.04167C4 18.9584 2.25 17.2084 2.25 14.1667V7.08335C2.25 4.04169 4 2.29169 7.04167 2.29169H13.7083C16.75 2.29169 18.5 4.04169 18.5 7.08335V14.1667C18.5 17.2084 16.75 18.9584 13.7083 18.9584ZM7.04167 3.54169C4.65833 3.54169 3.5 4.70002 3.5 7.08335V14.1667C3.5 16.55 4.65833 17.7084 7.04167 17.7084H13.7083C16.0917 17.7084 17.25 16.55 17.25 14.1667V7.08335C17.25 4.70002 16.0917 3.54169 13.7083 3.54169H7.04167Z" fill="#292D32"/>
<path d="M13.7084 9.79169H7.04175C6.70008 9.79169 6.41675 9.50835 6.41675 9.16669C6.41675 8.82502 6.70008 8.54169 7.04175 8.54169H13.7084C14.0501 8.54169 14.3334 8.82502 14.3334 9.16669C14.3334 9.50835 14.0501 9.79169 13.7084 9.79169Z" fill="#292D32"/>
<path d="M10.3751 13.9583H7.04175C6.70008 13.9583 6.41675 13.675 6.41675 13.3333C6.41675 12.9916 6.70008 12.7083 7.04175 12.7083H10.3751C10.7167 12.7083 11.0001 12.9916 11.0001 13.3333C11.0001 13.675 10.7167 13.9583 10.3751 13.9583Z" fill="#292D32"/>
</svg>
