<svg width="24" height="25" viewBox="0 0 24 25" fill="none" xmlns="http://www.w3.org/2000/svg">
<path d="M11.5 21.9582C5.85 21.9582 1.25 17.3582 1.25 11.7082C1.25 6.05816 5.85 1.45816 11.5 1.45816C17.15 1.45816 21.75 6.05816 21.75 11.7082C21.75 17.3582 17.15 21.9582 11.5 21.9582ZM11.5 2.95816C6.67 2.95816 2.75 6.88816 2.75 11.7082C2.75 16.5282 6.67 20.4582 11.5 20.4582C16.33 20.4582 20.25 16.5282 20.25 11.7082C20.25 6.88816 16.33 2.95816 11.5 2.95816Z" fill="#EFF6FF"/>
<path d="M21.9999 22.9582C21.8099 22.9582 21.6199 22.8882 21.4699 22.7382L19.4699 20.7382C19.1799 20.4482 19.1799 19.9682 19.4699 19.6782C19.7599 19.3882 20.2399 19.3882 20.5299 19.6782L22.5299 21.6782C22.8199 21.9682 22.8199 22.4482 22.5299 22.7382C22.3799 22.8882 22.1899 22.9582 21.9999 22.9582Z" fill="#EFF6FF"/>
</svg>
